#N canvas 764 148 901 828 10;
#N canvas 1130 120 711 483 gemwin 0;
#X obj 34 136 outlet;
#X obj 67 10 inlet;
#X obj 67 41 route create;
#X msg 67 70 set destroy;
#X msg 149 70 set create;
#X msg 228 127 reset \, dimen 1920 1080 \, create \, 1;
#X msg 228 82 reset \, dimen 1360 768 \, create \, 1;
#X msg 228 148 reset \, dimen 800 600 \, create \, 1;
#X msg 228 169 reset \, dimen 640 480 \, create \, 1;
#X msg 143 360 stereo \$1;
#X obj -53 267 tgl 15 0 empty empty empty 0 -6 0 10 -262144 -1 -1 0
1;
#X msg -53 285 menubar \$1;
#X msg -30 267 -1;
#X msg 56 288 0 \, destroy;
#N canvas 107 24 450 300 esc 0;
#X obj 65 20 gemkeyboard;
#X obj 65 167 outlet;
#X obj 89 71 keyname;
#X obj 128 96 sel Escape;
#X obj 65 41 sel 53;
#X obj 189 47 sel Escape;
#X obj 150 22 gemkeyname;
#X connect 0 0 4 0;
#X connect 2 1 3 0;
#X connect 3 0 1 0;
#X connect 4 0 1 0;
#X connect 5 0 1 0;
#X connect 6 1 5 0;
#X restore 56 266 pd esc;
#X msg 230 105 reset \, dimen 1600 900 \, create \, 1 \, FSAA 4;
#X msg 227 58 reset \, dimen 1024 768 \, create \, 1 \, FSAA 4;
#X obj 139 245 gemwin 30;
#X msg 225 206 create \, 1;
#X msg 98 174 destroy;
#X text 187 315 comment;
#X connect 1 0 2 0;
#X connect 2 0 3 0;
#X connect 2 0 8 0;
#X connect 2 1 4 0;
#X connect 2 1 19 0;
#X connect 3 0 0 0;
#X connect 4 0 0 0;
#X connect 5 0 17 0;
#X connect 6 0 17 0;
#X connect 7 0 17 0;
#X connect 8 0 17 0;
#X connect 9 0 17 0;
#X connect 10 0 11 0;
#X connect 11 0 17 0;
#X connect 12 0 11 0;
#X connect 13 0 17 0;
#X connect 14 0 13 0;
#X connect 15 0 17 0;
#X connect 16 0 17 0;
#X connect 18 0 17 0;
#X connect 19 0 17 0;
#X restore 588 291 pd gemwin;
#X msg 589 269 destroy;
#X obj -68 284 vsl 15 128 0 10 0 0 empty empty empty 0 -9 0 10 -204800
-1 -1 0 1;
#X obj 6 263 vsl 15 128 0 10 0 0 empty empty empty 0 -9 0 10 -204800
-1 -1 7400 1;
#X obj 74 292 vsl 15 128 -10 2 0 0 empty empty empty 0 -9 0 10 -204800
-1 -1 1798 1;
#X obj 589 215 output~;
#X obj 597 159 hip~ 30;
#X obj 149 295 vsl 15 128 0 10 0 0 empty empty empty 0 -9 0 10 -191407
-1 -1 10542 1;
#X obj 208 296 vsl 15 128 -1 15 0 0 empty empty empty 0 -9 0 10 -260097
-1 -1 915 1;
#X floatatom 53 583 5 0 0 0 - - -;
#X obj 269 293 vsl 15 128 -10 10 0 0 empty empty empty 0 -9 0 10 -228856
-1 -1 1079 1;
#X obj 517 588 s style;
#X msg 582 554 draw point;
#X text 463 414 (CUBE) STYLE;
#X msg 442 556 draw default;
#X obj 445 529 bng 15 250 50 0 empty empty empty 17 7 0 10 -262144
-1 -1;
#X obj 542 459 s width;
#X floatatom 542 436 5 0 0 0 - - -;
#X obj 718 455 s color;
#X obj 669 456 s white;
#X obj 718 435 tgl 15 0 empty empty empty 17 7 0 10 -262144 -1 -1 1
1;
#X obj 669 438 bng 15 250 50 0 empty empty empty 17 7 0 10 -262144
-1 -1;
#X obj 53 561 Trip \$1;
#X obj 455 124 soundfiler;
#N canvas 0 22 450 278 (subpatch) 0;
#X array song 3.97123e+06 float 0;
#X coords 0 1 3.97123e+06 -1 200 140 1;
#X restore 360 200 graph;
#X obj 354 412 tabplay~ song;
#X obj 386 496 vsl 20 128 0 1 0 0 empty empty Master -3 -9 0 10 -4032
-1 -1 8800 1;
#X obj 367 666 dac~;
#X obj 352 628 *~;
#X msg 215 8 bang;
#X msg 320 28 stop;
#X obj 65 119 tabread song;
#X floatatom -69 244 5 0 0 0 - - -;
#X floatatom 63 90 10 0 3000 0 - - -;
#X obj 63 59 cup;
#X msg 173 45 0;
#X obj 641 86 hip~ 30;
#X msg 642 55 read -resize music.wav song1;
#X floatatom 77 235 5 0 0 0 - - -;
#X floatatom 142 269 5 0 0 0 - - -;
#X floatatom 207 256 5 0 0 0 - - -;
#X obj 155 180 * 1000;
#X floatatom 266 235 5 0 0 0 - - -;
#X obj -68 165 * 1000;
#X floatatom -67 194 5 0 0 0 - - -;
#X obj -69 220 clip 0 10;
#X obj 7 190 clip 0 10;
#X obj 76 188 * 1000;
#X obj 7 167 * 1000;
#X obj 265 188 * 1000;
#X msg 408 36 read -resize music.wav song;
#X obj 187 212 moses 0;
#X obj 148 240 * -1;
#X obj 62 22 metro 10;
#X obj 76 211 clip -10 10;
#X connect 0 0 1 0;
#X connect 1 0 0 0;
#X connect 2 0 22 0;
#X connect 3 0 22 1;
#X connect 4 0 22 2;
#X connect 6 0 5 0;
#X connect 6 0 5 1;
#X connect 7 0 22 3;
#X connect 8 0 22 4;
#X connect 10 0 22 5;
#X connect 12 0 11 0;
#X connect 14 0 11 0;
#X connect 15 0 14 0;
#X connect 17 0 16 0;
#X connect 20 0 18 0;
#X connect 21 0 19 0;
#X connect 22 0 9 0;
#X connect 25 0 28 0;
#X connect 26 0 28 1;
#X connect 28 0 27 0;
#X connect 28 0 27 1;
#X connect 29 0 25 0;
#X connect 29 0 35 0;
#X connect 29 0 53 0;
#X connect 30 0 25 0;
#X connect 30 0 53 0;
#X connect 31 0 41 0;
#X connect 31 0 43 0;
#X connect 31 0 47 0;
#X connect 31 0 48 0;
#X connect 31 0 49 0;
#X connect 32 0 2 0;
#X connect 33 0 31 0;
#X connect 34 0 33 0;
#X connect 35 0 34 0;
#X connect 37 0 36 0;
#X connect 38 0 4 0;
#X connect 39 0 7 0;
#X connect 40 0 8 0;
#X connect 41 0 51 0;
#X connect 42 0 10 0;
#X connect 43 0 44 0;
#X connect 44 0 45 0;
#X connect 45 0 32 0;
#X connect 47 0 54 0;
#X connect 48 0 46 0;
#X connect 49 0 42 0;
#X connect 50 0 23 0;
#X connect 51 0 52 0;
#X connect 51 1 40 0;
#X connect 52 0 39 0;
#X connect 53 0 34 0;
#X connect 54 0 38 0;
